<?xml version="1.0" encoding="UTF-8" standalone="no"?>
<svg
   xmlns:dc="http://purl.org/dc/elements/1.1/"
   xmlns:cc="http://creativecommons.org/ns#"
   xmlns:rdf="http://www.w3.org/1999/02/22-rdf-syntax-ns#"
   xmlns:svg="http://www.w3.org/2000/svg"
   xmlns="http://www.w3.org/2000/svg"
   xmlns:sodipodi="http://sodipodi.sourceforge.net/DTD/sodipodi-0.dtd"
   xmlns:inkscape="http://www.inkscape.org/namespaces/inkscape"
   sodipodi:docname="SVG file.svg"
   inkscape:version="1.0 (4035a4fb49, 2020-05-01)"
   id="svg8"
   version="1.1"
   viewBox="0 0 16.933333 16.933334"
   height="64"
   width="64">
  <defs
     id="defs2">
    <clipPath
       id="clipPath16"
       clipPathUnits="userSpaceOnUse">
      <path
         inkscape:connector-curvature="0"
         id="path18"
         d="M 0,192 H 192 V 0 H 0 Z" />
    </clipPath>
    <clipPath
       id="clipPath26"
       clipPathUnits="userSpaceOnUse">
      <path
         inkscape:connector-curvature="0"
         id="path28"
         d="M -4.88281e-4,192 H 192 V -4.88281e-4 H -4.88281e-4 Z" />
    </clipPath>
    <clipPath
       id="clipPath34"
       clipPathUnits="userSpaceOnUse">
      <path
         inkscape:connector-curvature="0"
         id="path36"
         d="M -4.88281e-4,192 H 192 V -4.88281e-4 H -4.88281e-4 Z" />
    </clipPath>
    <clipPath
       id="clipPath38"
       clipPathUnits="userSpaceOnUse">
      <path
         inkscape:connector-curvature="0"
         id="path40"
         d="M 0,192 H 192 V 0 H 0 Z" />
    </clipPath>
    <clipPath
       id="clipPath42"
       clipPathUnits="userSpaceOnUse">
      <path
         inkscape:connector-curvature="0"
         id="path44"
         d="M 0,192 H 192 V 0 H 0 Z" />
    </clipPath>
    <clipPath
       id="clipPath116"
       clipPathUnits="userSpaceOnUse">
      <path
         inkscape:connector-curvature="0"
         id="path118"
         d="M 0,192 H 192 V -4.88281e-4 H 0 Z" />
    </clipPath>
    <clipPath
       id="clipPath120"
       clipPathUnits="userSpaceOnUse">
      <path
         inkscape:connector-curvature="0"
         id="path122"
         d="M 0,192 H 192 V 4.88281e-4 H 0 Z" />
    </clipPath>
    <clipPath
       id="clipPath124"
       clipPathUnits="userSpaceOnUse">
      <path
         inkscape:connector-curvature="0"
         id="path126"
         d="M 192,192 H 0 V 0 h 192 z" />
    </clipPath>
  </defs>
  <sodipodi:namedview
     inkscape:window-maximized="1"
     inkscape:window-y="-8"
     inkscape:window-x="-8"
     inkscape:window-height="706"
     inkscape:window-width="1366"
     units="px"
     showgrid="false"
     inkscape:document-rotation="0"
     inkscape:current-layer="layer1"
     inkscape:document-units="px"
     inkscape:cy="50.866434"
     inkscape:cx="42.5217"
     inkscape:zoom="26.282398"
     inkscape:pageshadow="2"
     inkscape:pageopacity="0.0"
     borderopacity="1.0"
     bordercolor="#666666"
     pagecolor="#ffffff"
     id="base" />
  <metadata
     id="metadata5">
    <rdf:RDF>
      <cc:Work
         rdf:about="">
        <dc:format>image/svg+xml</dc:format>
        <dc:type
           rdf:resource="http://purl.org/dc/dcmitype/StillImage" />
        <dc:title />
      </cc:Work>
    </rdf:RDF>
  </metadata>
  <g
     id="layer1"
     inkscape:groupmode="layer"
     inkscape:label="Layer 1">
    <g
       id="g1702"
       transform="translate(-2.7458184,3.8169643)">
      <g
         style="stroke-width:0.967591"
         transform="matrix(1.0336578,0,0,1.0333305,-0.16567103,0.11840407)"
         id="g1697">
        <path
           style="color:#000000;font-style:normal;font-variant:normal;font-weight:normal;font-stretch:normal;font-size:medium;line-height:normal;font-family:sans-serif;font-variant-ligatures:normal;font-variant-position:normal;font-variant-caps:normal;font-variant-numeric:normal;font-variant-alternates:normal;font-variant-east-asian:normal;font-feature-settings:normal;font-variation-settings:normal;text-indent:0;text-align:start;text-decoration:none;text-decoration-line:none;text-decoration-style:solid;text-decoration-color:#000000;letter-spacing:normal;word-spacing:normal;text-transform:none;writing-mode:lr-tb;direction:ltr;text-orientation:mixed;dominant-baseline:auto;baseline-shift:baseline;text-anchor:start;white-space:normal;shape-padding:0;shape-margin:0;inline-size:0;clip-rule:nonzero;display:inline;overflow:visible;visibility:visible;opacity:0.99;isolation:auto;mix-blend-mode:normal;color-interpolation:sRGB;color-interpolation-filters:linearRGB;solid-color:#000000;solid-opacity:1;vector-effect:none;fill:#000000;fill-opacity:1;fill-rule:nonzero;stroke:none;stroke-width:0.512017;stroke-linecap:round;stroke-linejoin:round;stroke-miterlimit:4;stroke-dasharray:none;stroke-dashoffset:0;stroke-opacity:1;color-rendering:auto;image-rendering:auto;shape-rendering:auto;text-rendering:auto;enable-background:accumulate;stop-color:#000000;stop-opacity:1"
           d="M 4.9217235,-3.8085938 A 0.25603411,0.25603411 0 0 0 4.6658641,-3.5527344 V 12.322266 a 0.25603411,0.25603411 0 0 0 0.2558594,0.255859 H 17.093598 a 0.25603411,0.25603411 0 0 0 0.255859,-0.255859 V 1.3886719 a 0.25603411,0.25603411 0 0 0 -0.07227,-0.1796875 l -4.796875,-4.9179688 v -0.00195 a 0.25600851,0.25600851 0 0 0 -0.01953,-0.019531 0.25600851,0.25600851 0 0 0 -0.02149,-0.019531 0.25600851,0.25600851 0 0 0 -0.02344,-0.017578 0.25600851,0.25600851 0 0 0 -0.02344,-0.013672 0.25600851,0.25600851 0 0 0 -0.01367,-0.00586 0.25600851,0.25600851 0 0 0 -0.02539,-0.00977 0.25600851,0.25600851 0 0 0 -0.01367,-0.00391 0.25600851,0.25600851 0 0 0 -0.0059,0 0.25600851,0.25600851 0 0 0 -0.03711,-0.00586 0.25600851,0.25600851 0 0 0 -0.01367,-0.00195 0.25600851,0.25600851 0 0 0 -0.0059,0 h -0.0078 z m 0.2558594,0.5117188 h 6.9902341 l 4.669922,4.7890625 V 12.066406 H 5.1775829 Z"
           id="path1710" />
        <path
           style="color:#000000;font-style:normal;font-variant:normal;font-weight:normal;font-stretch:normal;font-size:medium;line-height:normal;font-family:sans-serif;font-variant-ligatures:normal;font-variant-position:normal;font-variant-caps:normal;font-variant-numeric:normal;font-variant-alternates:normal;font-variant-east-asian:normal;font-feature-settings:normal;font-variation-settings:normal;text-indent:0;text-align:start;text-decoration:none;text-decoration-line:none;text-decoration-style:solid;text-decoration-color:#000000;letter-spacing:normal;word-spacing:normal;text-transform:none;writing-mode:lr-tb;direction:ltr;text-orientation:mixed;dominant-baseline:auto;baseline-shift:baseline;text-anchor:start;white-space:normal;shape-padding:0;shape-margin:0;inline-size:0;clip-rule:nonzero;display:inline;overflow:visible;visibility:visible;isolation:auto;mix-blend-mode:normal;color-interpolation:sRGB;color-interpolation-filters:linearRGB;solid-color:#000000;solid-opacity:1;vector-effect:none;fill:#000000;fill-opacity:1;fill-rule:nonzero;stroke:none;stroke-width:0.512017;stroke-linecap:round;stroke-linejoin:round;stroke-miterlimit:4;stroke-dasharray:none;stroke-dashoffset:0;stroke-opacity:1;color-rendering:auto;image-rendering:auto;shape-rendering:auto;text-rendering:auto;enable-background:accumulate;stop-color:#000000;stop-opacity:1;opacity:0.99"
           d="M 12.269531 -3.8085938 A 0.25603411 0.25603411 0 0 0 12.021484 -3.5527344 L 12.021484 1.3886719 A 0.25603411 0.25603411 0 0 0 12.277344 1.6445312 L 17.09375 1.6445312 A 0.25603411 0.25603411 0 0 0 17.277344 1.2089844 L 12.460938 -3.7304688 A 0.25603411 0.25603411 0 0 0 12.269531 -3.8085938 z M 12.533203 -2.921875 L 16.488281 1.1328125 L 12.533203 1.1328125 L 12.533203 -2.921875 z "
           id="path1706" />
      </g>
    </g>
    <g
       style="font-size:5.29167px;line-height:2;font-family:Calibri;-inkscape-font-specification:Calibri;text-align:center;writing-mode:lr-tb;text-anchor:middle;opacity:0.99;fill:none;stroke:#000000;stroke-width:0.264583;stroke-linecap:round;stroke-linejoin:round;stop-color:#000000"
       id="text26"
       aria-label="SVG">
      <path
         id="path29"
         style="font-weight:normal;font-size:5.29167px;fill:#000000;fill-opacity:1;stroke:none;stroke-width:0.264583"
         d="m 6.4654958,14.226522 q 0,0.235128 -0.08785,0.418579 -0.085266,0.183452 -0.2402956,0.312643 -0.1524456,0.126607 -0.3617352,0.191203 -0.2067059,0.0646 -0.4470014,0.0646 -0.1679485,0 -0.3126426,-0.02842 -0.1421103,-0.02842 -0.2557985,-0.06976 -0.1111044,-0.04134 -0.1886191,-0.08527 -0.074931,-0.04392 -0.1059368,-0.07493 -0.028422,-0.03101 -0.043925,-0.07752 -0.012919,-0.04909 -0.012919,-0.129191 0,-0.05684 0.00517,-0.09302 0.00517,-0.03876 0.015503,-0.06201 0.010335,-0.02326 0.025838,-0.03101 0.015503,-0.01033 0.036174,-0.01033 0.036174,0 0.1007691,0.04392 0.067179,0.04392 0.1705323,0.0956 0.1033529,0.05168 0.248047,0.09818 0.1472779,0.04392 0.3384808,0.04392 0.1446941,0 0.26355,-0.03876 0.1214397,-0.03876 0.2067059,-0.108521 0.08785,-0.07235 0.1343588,-0.1757 0.046509,-0.103352 0.046509,-0.235127 0,-0.142111 -0.064596,-0.24288 -0.064596,-0.100769 -0.1705323,-0.1757 Q 5.6593429,13.77952 5.5224003,13.717509 5.3880415,13.652913 5.2459312,13.588318 5.1038209,13.521138 4.9694621,13.44104 4.8351033,13.360941 4.7291666,13.252421 4.6232298,13.1439 4.5560504,12.999206 q -0.064596,-0.147278 -0.064596,-0.3514 0,-0.20929 0.074931,-0.372071 0.077515,-0.165364 0.2118735,-0.276469 0.1369427,-0.111104 0.3229779,-0.167948 0.1886191,-0.05943 0.4056603,-0.05943 0.1111044,0 0.2222088,0.02067 0.1136882,0.01809 0.2118735,0.05168 0.1007691,0.03101 0.1782838,0.07235 0.077515,0.03876 0.1007691,0.0646 0.025838,0.02325 0.03359,0.03876 0.00775,0.01292 0.012919,0.03617 0.00517,0.02067 0.00775,0.05168 0.00258,0.03101 0.00258,0.0801 0,0.04651 -0.00517,0.08268 -0.00258,0.03617 -0.010335,0.06201 -0.00775,0.02325 -0.023254,0.03617 -0.012919,0.01033 -0.031006,0.01033 -0.028422,0 -0.090434,-0.03617 -0.059428,-0.03617 -0.1472779,-0.0801 -0.08785,-0.04651 -0.2092897,-0.08268 -0.1188558,-0.03876 -0.2687176,-0.03876 -0.1395264,0 -0.2428794,0.03876 -0.1033529,0.03617 -0.1705323,0.09818 -0.067179,0.06201 -0.1007691,0.147278 -0.03359,0.08527 -0.03359,0.180868 0,0.139526 0.064596,0.240295 0.064596,0.100769 0.1705323,0.178284 0.1085206,0.07752 0.2454632,0.14211 0.1369426,0.0646 0.2790529,0.131775 0.1421103,0.0646 0.2790529,0.144694 0.1369427,0.07752 0.2428794,0.186036 0.1085206,0.105936 0.1731162,0.253214 0.067179,0.144694 0.067179,0.343649 z" />
      <path
         id="path31"
         style="font-weight:normal;font-size:5.29167px;fill:#000000;fill-opacity:1;stroke:none;stroke-width:0.264583"
         d="m 8.418866,15.086935 q -0.010335,0.02842 -0.028422,0.04651 -0.018087,0.01809 -0.051676,0.02842 -0.031006,0.01033 -0.082682,0.01292 -0.049093,0.0052 -0.1240235,0.0052 -0.056844,0 -0.1007691,-0.0026 -0.041341,0 -0.072347,-0.0052 -0.031006,-0.0052 -0.05426,-0.01033 -0.020671,-0.0078 -0.036174,-0.01809 -0.015503,-0.01033 -0.025838,-0.02325 -0.00775,-0.0155 -0.015503,-0.03617 L 6.7342133,11.978596 q -0.020671,-0.05684 -0.023254,-0.09043 0,-0.03617 0.023254,-0.05426 0.023254,-0.01809 0.074931,-0.02326 0.051677,-0.0052 0.1395265,-0.0052 0.072347,0 0.1136882,0.0052 0.043925,0.0026 0.067179,0.01292 0.023254,0.01034 0.03359,0.02842 0.012919,0.0155 0.023254,0.04134 l 0.9585984,2.813783 h 0.00258 l 0.9327602,-2.808616 q 0.00775,-0.02842 0.018087,-0.04651 0.010335,-0.01809 0.036174,-0.02842 0.025838,-0.01033 0.072347,-0.01292 0.046509,-0.0052 0.1240236,-0.0052 0.080099,0 0.1266073,0.0078 0.046509,0.0052 0.062012,0.02325 0.018087,0.01809 0.012919,0.05426 -0.00258,0.03359 -0.023254,0.09043 z" />
      <path
         id="path33"
         style="font-weight:normal;font-size:5.29167px;fill:#000000;fill-opacity:1;stroke:none;stroke-width:0.264583"
         d="m 12.524561,12.275735 q 0,0.04909 -0.0052,0.08785 -0.0052,0.03617 -0.0155,0.06201 -0.01033,0.02326 -0.02584,0.03359 -0.0155,0.01033 -0.03359,0.01033 -0.03101,0 -0.103353,-0.04909 -0.07235,-0.04909 -0.193786,-0.10852 -0.12144,-0.05943 -0.291972,-0.108521 -0.167949,-0.04909 -0.400493,-0.04909 -0.276469,0 -0.496094,0.100769 -0.219625,0.100769 -0.37207,0.279053 -0.152446,0.178284 -0.235128,0.423747 -0.0801,0.245463 -0.0801,0.532267 0,0.320394 0.08785,0.568441 0.09043,0.248047 0.248047,0.41858 0.157613,0.170532 0.374654,0.258382 0.219625,0.08785 0.480592,0.08785 0.155029,0 0.312642,-0.03617 0.160197,-0.03876 0.29714,-0.113689 v -0.974101 h -0.775147 q -0.04392,0 -0.06718,-0.04392 -0.02067,-0.04392 -0.02067,-0.136943 0,-0.04909 0.0052,-0.08268 0.0052,-0.03617 0.0155,-0.05684 0.01292,-0.02326 0.02842,-0.03359 0.0155,-0.01033 0.03876,-0.01033 h 1.061951 q 0.02842,0 0.05684,0.01033 0.02842,0.01033 0.05168,0.03101 0.02325,0.02067 0.03617,0.05684 0.01292,0.03617 0.01292,0.08268 v 1.273824 q 0,0.06718 -0.02325,0.116272 -0.02325,0.04909 -0.09819,0.08785 -0.07493,0.03617 -0.193787,0.0801 -0.118856,0.04392 -0.245463,0.07493 -0.126608,0.03101 -0.255799,0.04651 -0.129191,0.0155 -0.255798,0.0155 -0.387574,0 -0.692465,-0.118856 -0.304891,-0.12144 -0.516764,-0.343649 -0.20929,-0.222209 -0.3203945,-0.532267 -0.1111044,-0.310059 -0.1111044,-0.692465 0,-0.397909 0.1188559,-0.720887 0.12144,-0.322978 0.338481,-0.550354 0.219625,-0.227376 0.524516,-0.3514 0.307475,-0.126607 0.679545,-0.126607 0.191203,0 0.359152,0.03359 0.167948,0.03359 0.297139,0.0801 0.131775,0.04392 0.219625,0.09819 0.09043,0.05168 0.124024,0.08527 0.03359,0.03359 0.04651,0.07752 0.01292,0.04393 0.01292,0.126607 z" />
    </g>
  </g>
</svg>
