<svg width="20" height="12" viewBox="0 0 20 12" fill="none" xmlns="http://www.w3.org/2000/svg">
<mask id="path-1-inside-1_389_18871" fill="white">
<path d="M19.4141 7.2663H18.7766L16.7349 2.31856C17.0208 2.27958 17.2413 2.03466 17.2413 1.73754C17.2413 1.41333 16.979 1.15049 16.6554 1.15049H11.6177C11.3769 0.480438 10.7363 0 9.98559 0C9.23488 0 8.59422 0.480478 8.3534 1.15049H3.34465C3.02105 1.15049 2.75871 1.41333 2.75871 1.73754C2.75871 2.03466 2.97926 2.27958 3.26512 2.31856L1.22344 7.2663H0.585938C0.262344 7.2663 0 7.52914 0 7.85334C0 10.1398 1.85668 12 4.13883 12C6.42098 12 8.27766 10.1398 8.27766 7.85334C8.27766 7.52914 8.01531 7.2663 7.69172 7.2663H7.05418L5.01504 2.32458H8.3534C8.59422 2.99464 9.23484 3.47508 9.98559 3.47508C10.7363 3.47508 11.3769 2.99464 11.6177 2.32458H14.985L12.9459 7.2663H12.3083C11.9847 7.2663 11.7224 7.52914 11.7224 7.85334C11.7224 10.1398 13.5791 12 15.8612 12C18.1434 12 20 10.1398 20 7.85334C20 7.52914 19.7377 7.2663 19.4141 7.2663ZM4.13883 10.8259C2.70332 10.8259 1.5027 9.79932 1.22996 8.44039H7.0477C6.77496 9.79932 5.57434 10.8259 4.13883 10.8259ZM5.78613 7.2663H2.49152L4.13883 3.27423L5.78613 7.2663ZM9.98555 2.30098C9.67543 2.30098 9.42316 2.04824 9.42316 1.73754C9.42316 1.42683 9.67543 1.17409 9.98555 1.17409C10.2956 1.17409 10.5479 1.42683 10.5479 1.73754C10.5479 2.04824 10.2957 2.30098 9.98555 2.30098ZM15.8612 3.27423L17.5085 7.2663H14.2139L15.8612 3.27423ZM15.8612 10.8259C14.4257 10.8259 13.225 9.79932 12.9523 8.44039H18.77C18.4973 9.79932 17.2966 10.8259 15.8612 10.8259Z"/>
</mask>
<path d="M19.4141 7.2663H18.7766L16.7349 2.31856C17.0208 2.27958 17.2413 2.03466 17.2413 1.73754C17.2413 1.41333 16.979 1.15049 16.6554 1.15049H11.6177C11.3769 0.480438 10.7363 0 9.98559 0C9.23488 0 8.59422 0.480478 8.3534 1.15049H3.34465C3.02105 1.15049 2.75871 1.41333 2.75871 1.73754C2.75871 2.03466 2.97926 2.27958 3.26512 2.31856L1.22344 7.2663H0.585938C0.262344 7.2663 0 7.52914 0 7.85334C0 10.1398 1.85668 12 4.13883 12C6.42098 12 8.27766 10.1398 8.27766 7.85334C8.27766 7.52914 8.01531 7.2663 7.69172 7.2663H7.05418L5.01504 2.32458H8.3534C8.59422 2.99464 9.23484 3.47508 9.98559 3.47508C10.7363 3.47508 11.3769 2.99464 11.6177 2.32458H14.985L12.9459 7.2663H12.3083C11.9847 7.2663 11.7224 7.52914 11.7224 7.85334C11.7224 10.1398 13.5791 12 15.8612 12C18.1434 12 20 10.1398 20 7.85334C20 7.52914 19.7377 7.2663 19.4141 7.2663ZM4.13883 10.8259C2.70332 10.8259 1.5027 9.79932 1.22996 8.44039H7.0477C6.77496 9.79932 5.57434 10.8259 4.13883 10.8259ZM5.78613 7.2663H2.49152L4.13883 3.27423L5.78613 7.2663ZM9.98555 2.30098C9.67543 2.30098 9.42316 2.04824 9.42316 1.73754C9.42316 1.42683 9.67543 1.17409 9.98555 1.17409C10.2956 1.17409 10.5479 1.42683 10.5479 1.73754C10.5479 2.04824 10.2957 2.30098 9.98555 2.30098ZM15.8612 3.27423L17.5085 7.2663H14.2139L15.8612 3.27423ZM15.8612 10.8259C14.4257 10.8259 13.225 9.79932 12.9523 8.44039H18.77C18.4973 9.79932 17.2966 10.8259 15.8612 10.8259Z" fill="#282739"/>
<path d="M18.7766 7.2663L15.079 8.79207L16.1 11.2663H18.7766V7.2663ZM16.7349 2.31856L16.1946 -1.64478L11.0611 -0.944876L13.0374 3.84433L16.7349 2.31856ZM11.6177 1.15049L7.85347 2.50339L8.80485 5.15049H11.6177V1.15049ZM8.3534 1.15049V5.15049H11.1662L12.1176 2.50345L8.3534 1.15049ZM3.26512 2.31856L6.96268 3.84435L8.93891 -0.944781L3.80556 -1.64477L3.26512 2.31856ZM1.22344 7.2663V11.2663H3.90002L4.921 8.79209L1.22344 7.2663ZM7.05418 7.2663L3.35661 8.79206L4.37757 11.2663H7.05418V7.2663ZM5.01504 2.32458V-1.67542H-0.962677L1.31747 3.85035L5.01504 2.32458ZM8.3534 2.32458L12.1177 0.971692L11.1663 -1.67542H8.3534V2.32458ZM11.6177 2.32458V-1.67542H8.80485L7.85347 0.971692L11.6177 2.32458ZM14.985 2.32458L18.6826 3.85034L20.9627 -1.67542H14.985V2.32458ZM12.9459 7.2663V11.2663H15.6225L16.6434 8.79206L12.9459 7.2663ZM1.22996 8.44039V4.44039H-3.65259L-2.69183 9.22748L1.22996 8.44039ZM7.0477 8.44039L10.9695 9.22748L11.9302 4.44039H7.0477V8.44039ZM5.78613 7.2663V11.2663H11.7639L9.4837 5.74052L5.78613 7.2663ZM2.49152 7.2663L-1.20604 5.74052L-3.48623 11.2663H2.49152V7.2663ZM4.13883 3.27423L7.83639 1.74845L4.13883 -7.21221L0.441262 1.74845L4.13883 3.27423ZM15.8612 3.27423L19.5587 1.74845L15.8612 -7.21221L12.1636 1.74845L15.8612 3.27423ZM17.5085 7.2663V11.2663H23.4862L21.206 5.74052L17.5085 7.2663ZM14.2139 7.2663L10.5163 5.74052L8.23612 11.2663H14.2139V7.2663ZM12.9523 8.44039V4.44039H8.06975L9.03051 9.22748L12.9523 8.44039ZM18.77 8.44039L22.6918 9.22748L23.6526 4.44039H18.77V8.44039ZM19.4141 3.2663H18.7766V11.2663H19.4141V3.2663ZM22.4741 5.74053L20.4325 0.792788L13.0374 3.84433L15.079 8.79207L22.4741 5.74053ZM17.2753 6.28189C19.5145 5.97659 21.2413 4.06373 21.2413 1.73754H13.2413C13.2413 0.00559347 14.5271 -1.41743 16.1946 -1.64478L17.2753 6.28189ZM21.2413 1.73754C21.2413 -0.788676 19.1952 -2.84951 16.6554 -2.84951V5.15049C14.7627 5.15049 13.2413 3.61534 13.2413 1.73754H21.2413ZM16.6554 -2.84951H11.6177V5.15049H16.6554V-2.84951ZM15.382 -0.2024C14.5916 -2.4015 12.4857 -4 9.98559 -4V4C8.98691 4 8.1622 3.36238 7.85347 2.50339L15.382 -0.2024ZM9.98559 -4C7.48551 -4 5.37954 -2.40147 4.58916 -0.20247L12.1176 2.50345C11.8089 3.36243 10.9843 4 9.98559 4V-4ZM8.3534 -2.84951H3.34465V5.15049H8.3534V-2.84951ZM3.34465 -2.84951C0.804792 -2.84951 -1.24129 -0.788676 -1.24129 1.73754H6.75871C6.75871 3.61534 5.23732 5.15049 3.34465 5.15049V-2.84951ZM-1.24129 1.73754C-1.24129 4.06397 0.48576 5.97658 2.72468 6.28188L3.80556 -1.64477C5.47276 -1.41743 6.75871 0.00535567 6.75871 1.73754H-1.24129ZM-0.432443 0.792763L-2.47412 5.7405L4.921 8.79209L6.96268 3.84435L-0.432443 0.792763ZM1.22344 3.2663H0.585938V11.2663H1.22344V3.2663ZM0.585938 3.2663C-1.95392 3.2663 -4 5.32713 -4 7.85334H4C4 9.73115 2.47861 11.2663 0.585938 11.2663V3.2663ZM-4 7.85334C-4 12.3418 -0.359583 16 4.13883 16V8C4.11623 8 4.10308 7.99618 4.09233 7.99162C4.07884 7.98589 4.06166 7.97533 4.04471 7.95834C4.02775 7.94136 4.01642 7.92334 4.00988 7.90789C4.00449 7.89513 4 7.8792 4 7.85334H-4ZM4.13883 16C8.63724 16 12.2777 12.3418 12.2777 7.85334H4.27766C4.27766 7.8792 4.27317 7.89513 4.26777 7.90789C4.26124 7.92334 4.2499 7.94136 4.23295 7.95834C4.216 7.97533 4.19882 7.98589 4.18533 7.99162C4.17458 7.99618 4.16142 8 4.13883 8V16ZM12.2777 7.85334C12.2777 5.32713 10.2316 3.2663 7.69172 3.2663V11.2663C5.79905 11.2663 4.27766 9.73115 4.27766 7.85334H12.2777ZM7.69172 3.2663H7.05418V11.2663H7.69172V3.2663ZM10.7518 5.74054L8.71261 0.798823L1.31747 3.85035L3.35661 8.79206L10.7518 5.74054ZM5.01504 6.32458H8.3534V-1.67542H5.01504V6.32458ZM4.58913 3.67748C5.37952 5.87663 7.48552 7.47508 9.98559 7.47508V-0.524924C10.9842 -0.524924 11.8089 0.112645 12.1177 0.971692L4.58913 3.67748ZM9.98559 7.47508C12.4857 7.47508 14.5916 5.87658 15.382 3.67748L7.85347 0.971692C8.1622 0.112695 8.98691 -0.524924 9.98559 -0.524924V7.47508ZM11.6177 6.32458H14.985V-1.67542H11.6177V6.32458ZM11.2874 0.798824L9.24829 5.74054L16.6434 8.79206L18.6826 3.85034L11.2874 0.798824ZM12.9459 3.2663H12.3083V11.2663H12.9459V3.2663ZM12.3083 3.2663C9.76846 3.2663 7.72238 5.32713 7.72238 7.85334H15.7224C15.7224 9.73115 14.201 11.2663 12.3083 11.2663V3.2663ZM7.72238 7.85334C7.72238 12.3418 11.3628 16 15.8612 16V8C15.8386 8 15.8255 7.99618 15.8147 7.99162C15.8012 7.98589 15.784 7.97533 15.7671 7.95834C15.7501 7.94136 15.7388 7.92334 15.7323 7.90789C15.7269 7.89513 15.7224 7.8792 15.7224 7.85334H7.72238ZM15.8612 16C20.3597 16 24 12.3418 24 7.85334H16C16 7.87921 15.9955 7.89514 15.9901 7.90791C15.9836 7.92337 15.9722 7.94138 15.9553 7.95836C15.9383 7.97534 15.9212 7.9859 15.9077 7.99162C15.897 7.99618 15.8838 8 15.8612 8V16ZM24 7.85334C24 5.32713 21.9539 3.2663 19.4141 3.2663V11.2663C17.5214 11.2663 16 9.73115 16 7.85334H24ZM4.13883 6.82591C4.65422 6.82591 5.05846 7.18843 5.15176 7.65329L-2.69183 9.22748C-2.05307 12.4102 0.752424 14.8259 4.13883 14.8259V6.82591ZM1.22996 12.4404H7.0477V4.44039H1.22996V12.4404ZM3.1259 7.65329C3.2192 7.18843 3.62344 6.82591 4.13883 6.82591V14.8259C7.52523 14.8259 10.3307 12.4102 10.9695 9.22748L3.1259 7.65329ZM5.78613 3.2663H2.49152V11.2663H5.78613V3.2663ZM6.18909 8.79208L7.83639 4.80001L0.441262 1.74845L-1.20604 5.74052L6.18909 8.79208ZM0.441262 4.80001L2.08857 8.79208L9.4837 5.74052L7.83639 1.74845L0.441262 4.80001ZM9.98555 -1.69902C11.8917 -1.69902 13.4232 -0.153769 13.4232 1.73754H5.42316C5.42316 4.25025 7.45917 6.30098 9.98555 6.30098V-1.69902ZM13.4232 1.73754C13.4232 3.62884 11.8917 5.17409 9.98555 5.17409V-2.82591C7.45917 -2.82591 5.42316 -0.775172 5.42316 1.73754H13.4232ZM9.98555 5.17409C8.07954 5.17409 6.54793 3.62902 6.54793 1.73754H14.5479C14.5479 -0.775353 12.5117 -2.82591 9.98555 -2.82591V5.17409ZM6.54793 1.73754C6.54793 -0.153769 8.0794 -1.69902 9.98555 -1.69902V6.30098C12.5119 6.30098 14.5479 4.25025 14.5479 1.73754H6.54793ZM12.1636 4.80001L13.8109 8.79208L21.206 5.74052L19.5587 1.74845L12.1636 4.80001ZM17.5085 3.2663H14.2139V11.2663H17.5085V3.2663ZM17.9114 8.79208L19.5587 4.80001L12.1636 1.74845L10.5163 5.74052L17.9114 8.79208ZM15.8612 6.82591C16.3766 6.82591 16.7808 7.18843 16.8741 7.65329L9.03051 9.22748C9.66928 12.4102 12.4748 14.8259 15.8612 14.8259V6.82591ZM12.9523 12.4404H18.77V4.44039H12.9523V12.4404ZM14.8482 7.65329C14.9415 7.18839 15.3458 6.82591 15.8612 6.82591V14.8259C19.2475 14.8259 22.0531 12.4102 22.6918 9.22748L14.8482 7.65329Z" fill="#282739" mask="url(#path-1-inside-1_389_18871)"/>
</svg>
